<svg id="图层_1" data-name="图层 1" xmlns="http://www.w3.org/2000/svg" viewBox="0 0 181.84 318.27"><defs><style>.cls-1{fill:#b61b33;}</style></defs><path class="cls-1" d="M55.76,370.83l6,.61c0-4.58-.32-9.15.06-13.67a40.39,40.39,0,0,1,54.91-34.15c19.08,7.39,25.1,28.13,13.12,45.25-.86,1.23-1.82,2.39-2.79,3.53-7.75,9-7.09,13.55,2.9,19.88.53.34,1,.73,2.71,1.9-3-.42-4.75-.58-6.45-.9-12.21-2.28-15.12-10.12-7.58-20.08,3.6-4.76,7.43-9.43,10.34-14.6,3.27-5.81,3.16-12-1-18.29-.38,4.56-.32,8.62-1.13,12.49-2.72,12.88-13,20.63-26.06,20-7.29-.35-12.2-4.35-12.59-11.61-.33-6,.69-12.13,1.12-18.36,8.36,1.92,14.72,9.94,14.86,17.59.1,5.16,2.34,6.84,7.24,5.31a10.24,10.24,0,0,0,3.16-1.46c7.59-5.77,9.46-13.81,8.41-22.72-1-8.12-6.15-12.56-13.75-14.65-22.61-6.22-44.13,12.24-43.14,37.19.51,12.93,5.45,23.78,16.35,32.59.87-6.53,4.54-9.38,10.24-10,.14.49.39.86.29,1.07-4.09,8.65-2.44,13.17,6.27,17,29,12.77,61.51-8.18,61.7-39.85.11-17.33,0-34.66,0-52V307.3c5.15.32,8,3.27,10.3,6.81,8.23,12.89,7.49,26.54,2.9,40.35-1.29,3.9-3.15,7.6-4.43,11.55,5.33-5.76,8.29-12.72,9.67-20.38,2-10.83,1.91-21.59-2.17-32-3.69-9.39-10.44-12.95-20.25-11-7.36,1.47-9.9,8.11-5,13.82a20.64,20.64,0,0,1,5.36,16.07,18.1,18.1,0,0,1-8.08,13.54c-3.18-7.29-6.15-14.59-9.52-21.71-2.93-6.22-2-13,3.07-18.43,5.49-5.89,12.64-7.7,20.72-8.19-.39-.78-.52-1.46-.93-1.78-12.08-9.43-20.63-21.61-27.56-35.08-5-9.6-9.08-12.38-19.12-12.87,2.37-6.94,6.88-10.42,14.36-9.4.95-5.06,1.28-10,2.87-14.44,2.37-6.67,5-13.47,8.68-19.44,6.06-9.7,5.74-14.07-3.45-20.78,5.47-.92,6.92-.23,12.58,6,3.81-5.4,3.65-11.23-.42-15.78-3.37-3.76-5.59-3.69-13.21.41.34-7.16,3.79-11.14,9.87-11.38,5.39-.21,9.47,3.54,10.24,10.14.45,3.86.08,7.83.08,12.23,10.38-9.64,23.2-14.3,35.75-19.59,12.38-5.21,15.39-13.53,10.91-27.16l6.89,6.08a32.91,32.91,0,0,0-3.5-26.08c-1.4-2.38-2.1-4.18,2-5.77a42.34,42.34,0,0,1,6.79,31c-1.86,11.81-9.36,19.54-19.87,25.41,5.21,3,10.16,5.79,6.84,12.72-10.4-9.82-27.63-7.28-37,5.45,5.87-.71,12.25-3.1,16.64,2.79,3,4,.76,8.23-.73,11.21-3.88-2.36-7.63-6.43-11.43-6.49-4.88-.07-10.44,2.15-14.6,5-16.65,11.43-22.13,32.36-14.82,54.12,1.19,3.57,2.74,7,3.93,10,0-6.06-.86-12.53.16-18.69,3-18.1,15.14-29.78,33.33-33.37,6.36-1.25,12.76-2.44,19-4.25,9.39-2.73,10.82-4.8,11.49-14.42,5.25,2.83,9,6.64,9.19,12.7.18,7.59-6.35,8.74-11.21,10.58,4.6,5,9.21,9.68,13.55,14.64,4.48,5.12,9.77,7.3,16.66,4.9-3.66,11.62-10.86,12.19-21.06,1.46,0,2.38.06,4.1,0,5.8-.57,12.1-5.86,21.09-17.47,25.48-3.17,1.2-3.9,3-3.88,6,.08,10,0,20,0,30,0,1.57-.13,3.14-.16,3.72-7.89-7.08-15.9-14.47-24.14-21.58-6.81-5.88-10.83-12.53-10-22.09.73-8.94.37-18,.05-27-.14-3.84,1.39-5.67,4.64-7.11,10.1-4.49,16.15-1.21,17.77,9.78a7.36,7.36,0,0,0,.76,1.74c7.32-3.15,10.05-11.64,6.66-20.24,4.54,1.17,4.79,1.45,4.8,6.2,0,12.13,0,24.26,0,36.48,11.23-2.5,18.32-17.2,14.58-29.47-4.19-13.75-19.48-21.7-32.67-16.25,5.33,1.07,10.2,2.43,11.21,7.85.58,3.16-.2,6.58-1.2,10.08-2.55-7.56-7.14-11.92-14.94-11.81a22.5,22.5,0,0,0-21.68,18.14,44.8,44.8,0,0,0,6.23,34.05c3.89,6,9.47,11,14.61,16.16,2.32,2.32,5.41,3.86,8.16,5.74,7.59,5.2,12.42,12,12.31,22.64,8-7.11,15.84-12.54,24.46-.51-8.52-2.28-14.71,0-19.53,6.76,10.54.51,12.61,1.93,13.54,9-10.32-3.7-15.17-1.59-19.92,8.7a86.53,86.53,0,0,0-5.9,15.43l9.5-14.57,1.21.11c-.66,5.41-.67,11-2.09,16.2-7.87,28.7-26.46,46.54-55.7,52.28-27.45,5.39-55.33-7-70.71-30.23C63.74,380.36,59.75,375.91,55.76,370.83Z" transform="translate(-55.76 -98.5)"/><path class="cls-1" d="M161.66,176.75c-1.09-10-1.84-21.09-3.68-32a73.52,73.52,0,0,0-6.07-18.91c-5.31-11.23-13.25-13.93-24.39-9.29C126,105.79,131.27,99.87,142,100.46a22.72,22.72,0,0,1,18.11,10c5.48,7.72,7.58,16.58,8.44,25.8.12,1.29-.78,2.75-1.41,4-.8,1.63-2.67,3.22-2.56,4.71.25,3.11.92,6.53,2.59,9,.71,1.06,4.6.72,6.69,0,11.34-4,15.52-10.05,15.47-22.06,0-8.79,1.42-17.19,5.93-24.8-6.91-5.27-11.92-4.58-18.76,3.07v-7.94l-1.16-1c-2.09,2.21-5.57,4.23-5.89,6.66-.34,2.62,1.95,5.86,3.74,8.38,1.05,1.47,3.37,2,5.08,3,5.14,3.12,8.44,7.46,8.95,13.62.59,7.08-1.54,10.4-8.21,13-3.53,1.39-7,2.85-11.73,4.76,1.1-2.93,1.55-5.5,2.9-7.45,7.36-10.69,7.43-10.64-.52-21.41-.29-.41-.55-.84-.82-1.25-7.32-11.26-3-20.55,10.25-22a30,30,0,0,1,7,0c8,1.06,15.54,3.17,24.14.8s15.08,4.12,15.5,12.93c-14.79-6-21.41-3.25-25.57,12.54-2.69,10.19-3.41,21-4.37,31.53-.33,3.58-1.46,5.33-4.54,6.7C181.19,167.66,171.3,172.31,161.66,176.75Z" transform="translate(-55.76 -98.5)"/><path class="cls-1" d="M181.05,206.66c9.94-8.51,8.54-18.27-3.08-23.82,3.92-2.46,11.68-3.86,15.31-2.29a4.85,4.85,0,0,1,2.14,3.68c.21,6.48.28,13-.06,19.44-.07,1.39-1.8,3-3.17,3.92-1.14.76-2.87.66-4.35.9L161,212.82a73.91,73.91,0,0,1,.14-9.6,6.07,6.07,0,0,1,3-3.87C170.39,196.24,174.84,198.22,181.05,206.66Z" transform="translate(-55.76 -98.5)"/></svg>